<svg width="590" height="408" viewBox="0 0 590 408" fill="none" xmlns="http://www.w3.org/2000/svg">
<path d="M202.713 214.068C201.462 214.068 200.211 214.068 174.86 214.068C149.509 214.068 100.096 214.068 73.7026 214.381C41.5003 214.762 32.8093 221.005 24.2611 223.223C22.092 223.785 19.5415 223.545 19.5036 223.232C18.3542 213.749 42.8171 220.399 69.2958 219.441C97.0904 218.437 128.755 216.608 141.065 215.651C145.89 215.275 153.376 214.068 163.782 213.755C202.463 212.593 252.657 212.798 246.98 214.058C228.467 218.169 199.586 216.589 165.762 217.537C135.077 218.396 76.8964 217.859 46.9301 219.735C16.9638 221.612 16.9638 225.365 18.5275 227.298C24.8908 235.165 40.8838 232.378 91.5952 242.461C142.948 252.672 152.75 241.248 162.559 240.291C171.337 239.434 179.93 235.562 189.407 233.031C200.664 230.026 214.654 229.231 225.733 227.345C238.688 225.44 250.06 224.189 258.286 222.294C259.575 221.043 259.575 218.541 259.575 215.963" stroke="#333333" stroke-width="8" stroke-linecap="round"/>
<path d="M28.3363 240.603C28.3363 241.854 28.3363 276.9 28.0235 330.275C27.8976 351.77 26.4409 366.212 27.3791 383.905C28.3173 389.715 30.1938 389.089 31.1604 363.748C32.1271 338.406 32.1271 288.367 32.1271 236.812" stroke="#333333" stroke-width="8" stroke-linecap="round"/>
<path d="M261.471 229.23C261.471 229.856 261.471 230.481 261.471 252.696C261.471 274.91 261.471 318.693 261.158 342.187C260.845 365.68 260.22 367.557 259.897 370.4C259.575 373.243 259.575 376.996 259.575 380.863" stroke="#333333" stroke-width="8" stroke-linecap="round"/>
<path d="M54.8721 240.604C54.8721 243.105 54.8721 258.78 55.1848 281.516C55.4976 289.865 56.123 291.741 56.4453 293.959C56.7675 296.177 56.7675 298.679 56.7675 301.256" stroke="#333333" stroke-width="8" stroke-linecap="round"/>
<path d="M227.354 231.127V341.06" stroke="#333333" stroke-width="8" stroke-linecap="round"/>
<path d="M56.7672 212.173C56.7672 211.547 56.7672 210.922 56.7672 191.522C56.7672 172.123 56.7672 133.968 56.4545 112.437C56.1417 90.9048 55.5162 87.152 55.194 75.2109C54.8718 63.2699 54.8718 43.2544 79.5784 32.9434C104.285 22.6325 153.698 22.6325 180.404 22.3197C207.11 22.007 209.612 21.3815 214.341 21.0593C219.07 20.7371 225.951 20.7371 228.87 48.8838C231.789 77.0305 230.538 133.324 229.58 163.262C228.623 193.2 227.998 195.076 227.676 198.232C227.353 201.388 227.353 205.766 227.353 210.277" stroke="#333333" stroke-width="8" stroke-linecap="round"/>
<path d="M512.083 209.159C510.881 209.159 509.678 209.159 485.001 209.159C460.325 209.159 412.212 209.159 386.524 209.761C354.631 210.507 348.079 213.406 345.947 215.219C344.99 216.032 346.821 218.235 348.343 219.465C354.274 224.26 362.604 224.942 374.441 225.862C383.083 226.534 389.941 232.232 399.054 234.364C403.783 235.471 408.184 235.275 437.38 236.186C464.76 237.041 517.697 236.496 544.961 235.293C572.225 234.091 572.225 231.685 571.323 229.844C567.623 222.296 557.682 219.511 550.383 214.946C543.084 212.203 532.203 210.982 520.33 209.469C516.986 209.159 512.776 209.159 508.438 209.159" stroke="#333333" stroke-width="8" stroke-linecap="round"/>
<path d="M348.061 232.852C348.061 233.453 348.061 234.054 348.061 255.414C348.061 276.773 348.061 318.872 348.362 341.462C348.662 364.051 349.264 365.856 349.574 368.589C349.884 371.323 349.884 374.932 349.884 378.649" stroke="#333333" stroke-width="8" stroke-linecap="round"/>
<path d="M380.865 241.964V263.834" stroke="#333333" stroke-width="8" stroke-linecap="round"/>
<path d="M566.758 234.674C566.758 235.275 566.758 235.877 566.758 259.04C566.758 282.204 566.758 327.912 564.935 376.827" stroke="#333333" stroke-width="8" stroke-linecap="round"/>
<path d="M530.308 243.786V313.04" stroke="#333333" stroke-width="8" stroke-linecap="round"/>
<path d="M382.688 231.029V302.106" stroke="#333333" stroke-width="8" stroke-linecap="round"/>
<path d="M380.865 205.515C380.865 204.312 380.865 203.109 380.865 181.139C380.865 159.169 380.865 116.469 380.565 93.5692C380.183 64.5258 377.22 49.4926 380.228 34.0016C384.095 14.079 427.448 26.9122 451.249 25.3995C479.219 23.622 502.169 23.2672 517.524 22.0553C519.35 21.9112 521.159 22.6476 522.089 27.4681C524.715 41.09 523.62 52.4086 524.531 71.3806C525.355 88.5313 524.841 121.025 525.142 138.958C526.663 171.398 527.265 192.739 528.176 197.578C528.486 200.612 528.486 204.822 530.308 209.16" stroke="#333333" stroke-width="8" stroke-linecap="round"/>
<path d="M421.713 31.5029V208.853" stroke="#333333" stroke-width="8" stroke-linecap="round"/>
<path d="M476.003 31.5029C476.003 32.6973 476.003 33.8917 476.003 58.9922C476.003 84.0926 476.003 133.063 476.601 160.082C477.198 187.1 478.392 190.684 479.623 205.234" stroke="#333333" stroke-width="8" stroke-linecap="round"/>
<path d="M59.7739 103.89C75.3373 97.9183 106.754 83.4046 123.638 79.1699C150.222 77.3602 178.997 74.9352 213.363 76.1296C226.23 77.324 229.813 79.7128 240.743 82.174" stroke="#333333" stroke-width="8" stroke-linecap="round"/>
</svg>
